<svg xmlns="http://www.w3.org/2000/svg" width="77" height="85" fill="none" viewBox="0 0 77 85">
    <path fill="#304248" d="M70.734 47.968c-.141-1.414-.777-2.758-1.908-3.747-.142-.142-.283-.212-.425-.354-.07 0-.07-.07-.141-.07-.07-.071-.212-.142-.283-.213-.07 0-.141-.07-.212-.07-.07-.071-.212-.071-.283-.142-.07 0-.141-.07-.212-.07-.07-.071-.212-.071-.283-.071-.07 0-.141-.07-.212-.07-.07 0-.212-.072-.282-.072-.071 0-.142 0-.213-.07-.07 0-.212 0-.282-.071H64.442c-.141 0-.212 0-.353.07-.07 0-.142 0-.212.071-.071 0-.212.071-.283.071-.07 0-.142.07-.212.07-.07.072-.212.072-.283.142-.07 0-.141.07-.212.07-.07.072-.212.072-.283.142-.07.071-.141.071-.212.142-.07.07-.212.141-.283.212-.07.07-.141.07-.212.141-.07.07-.212.142-.283.212l-.141.142-.424.424-6.363 6.575c.424.777.636 1.626.636 2.545 0 3.11-2.545 5.656-5.656 5.656H38.072c-.778 0-1.414-.637-1.414-1.414 0-.778.636-1.414 1.414-1.414h11.524c1.555 0 2.828-1.273 2.828-2.828 0-.92-.495-1.768-1.202-2.262-.566-.283-1.273-.495-1.98-.495H33.194c-1.06-.425-2.192-.778-3.394-1.06-.848-.142-1.767-.284-2.615-.354h-.92c-6.15 0-11.523 2.616-14.775 7.564l15.058 14.776.495-.424c.566-.566 1.273-.92 2.05-1.06.283-.071.495-.071.778-.071h18.381c3.253 0 6.363-1.273 8.696-3.535 0 0 .142-.212.849-.99.283-.353.636-.778 1.13-1.343.142-.141.213-.283.354-.424.354-.425.707-.92 1.202-1.414.566-.707 1.273-1.485 2.05-2.475.566-.636 1.202-1.414 1.839-2.191.495-.566.99-1.202 1.555-1.838.141-.142.212-.283.353-.425.99-1.13 2.05-2.403 3.182-3.817.353-.425.636-.92.848-1.414.354-.99.495-1.838.424-2.758zM8.874 58.714c-.141.07-.283.07-.353.141-.071 0-.071 0-.142.071-.212.07-.424.212-.636.353-.07 0-.07.071-.142.071-.212.142-.424.283-.565.495L.46 66.42c-.566.566-.566 1.414 0 1.98l15.483 15.624.212.212s.07 0 .07.07c.071 0 .071.071.142.071h.07c.071 0 .071.07.142.07H17.146c.07 0 .07 0 .141-.07h.07c.071 0 .142-.07.142-.07h.07c.072-.071.142-.142.213-.142l6.716-6.575c.566-.565.99-1.343 1.131-2.12L8.874 58.713z"/>
    <path fill="#D39A30" d="M46.74 13.3l-5.267 21.397c2.522.751 3.835 1.78 3.395 4.356l5.931 1.46c.375-1.171.922-1.861 1.712-2.22.77-.35 1.778-.362 3.328-.06l5.257-21.357c-2.652-.852-3.675-2.522-3.224-5.096l-5.93-1.46c-.375 1.171-.967 2.04-1.753 2.539-.868.55-1.967.702-3.45.44zm10.826 13.844c-.31 1.26-.98 2.402-1.923 3.281-.944.88-2.12 1.456-3.38 1.657-1.26.202-2.545.02-3.696-.525-1.15-.544-2.113-1.424-2.767-2.53-.654-1.107-.969-2.388-.905-3.684.063-1.295.502-2.546 1.261-3.594.76-1.048 1.804-1.846 3.003-2.294 1.2-.447 2.498-.524 3.733-.22 1.655.41 3.076 1.472 3.952 2.955.877 1.482 1.136 3.264.722 4.954z"/>
    <path fill="#D39A30" d="M48.839 7.798c-1.609-.396-3.234.587-3.63 2.196l-6.59 26.774c-.397 1.609.587 3.234 2.196 3.63l12.96 3.19c1.609.396 3.234-.587 3.63-2.196l6.59-26.774c.396-1.608-.587-3.234-2.196-3.63l-12.96-3.19zm9.682 3.4c.117.028.217.1.281.202.064.102.085.225.06.342-.574 2.504.28 3.821 2.93 4.546.115.031.215.106.277.209.062.102.082.225.057.343l-5.418 22.01c-.032.116-.108.215-.21.276-.103.06-.225.08-.34.052-3.217-.706-3.994-.11-4.535 1.945-.016.057-.042.11-.077.156-.036.047-.08.086-.13.115-.051.03-.107.048-.165.056-.058.008-.117.004-.173-.012l-6.812-1.677c-.116-.025-.216-.095-.28-.195-.064-.1-.086-.221-.061-.338.454-1.979.116-2.937-3.106-3.819-.115-.031-.214-.106-.275-.208-.061-.103-.081-.226-.054-.343l5.427-22.051c.031-.116.105-.215.207-.277.102-.063.224-.083.34-.057 1.422.311 2.484.24 3.23-.224.682-.425 1.148-1.188 1.468-2.402.03-.116.105-.214.208-.275.102-.061.224-.08.34-.05l6.811 1.676z"/>
    <rect width="34.142" height="21.054" x="34.381" y="48.133" fill="#F8F8F8" rx="3" transform="rotate(-107.843 34.38 48.133)"/>
    <path fill="#304248" fill-rule="evenodd" d="M33.973 46.866c.234.728 1.057 1.058 1.775.827l17.424-5.608c.718-.232 1.194-.98.96-1.708l-9.659-30.005c-.234-.728-1.057-1.058-1.775-.827l-17.424 5.609c-.718.23-1.194.979-.96 1.707l9.659 30.005zm1-.322l-9.657-30.005c-.04-.121.037-.306.28-.385l1.506-.484 9.83 30.537-1.506.485c-.243.078-.413-.027-.453-.148zm6.474-1.79l-9.83-30.537 11.404-3.671c.242-.078.413.027.452.149l9.658 30.004c.039.122-.038.307-.28.385l-11.404 3.67zm-2.111-23.828c.256.795.817 1.455 1.56 1.837.743.38 1.607.451 2.402.195.795-.256 1.456-.817 1.837-1.56.381-.743.452-1.607.196-2.402-.192-.594-.556-1.117-1.046-1.503-.142.497-.405.95-.764 1.322-.36.371-.805.648-1.297.807-.492.158-1.016.192-1.524.1-.51-.093-.987-.309-1.393-.63-.172.6-.162 1.239.029 1.834zm-1.2-3.728c.256.795.817 1.456 1.56 1.837.743.381 1.607.452 2.402.196.795-.256 1.456-.817 1.837-1.56.381-.743.452-1.607.196-2.402-.256-.795-.817-1.456-1.56-1.837-.743-.382-1.607-.452-2.402-.196-.795.256-1.456.817-1.837 1.56-.382.743-.452 1.607-.196 2.402zm12.242 23.42c.067.208.245.335.4.285l.763-.245c.155-.05.226-.258.16-.466l-2.746-8.529c-.067-.208-.246-.336-.401-.286l-.763.246c-.155.05-.225.258-.158.466l2.745 8.529z" clip-rule="evenodd"/>
    <path fill="#D39A30" d="M28.267 33.935c-2.882 0-5.232 2.349-5.232 5.207 0 2.882 2.35 5.207 5.207 5.207 2.883 0 5.207-2.35 5.207-5.207.025-2.858-2.324-5.207-5.182-5.207z"/>
    <path fill="#F8F8F8" stroke="#304248" d="M27.862 36.153h0v.004c.26 2.68-1.708 5.094-4.41 5.356-2.679.26-5.093-1.708-5.355-4.41-.26-2.677 1.73-5.096 4.435-5.358 2.679-.26 5.094 1.732 5.33 4.408z"/>
</svg>
