<svg xmlns="http://www.w3.org/2000/svg" width="61" height="60" fill="none" viewBox="0 0 61 60">
    <path fill="#304248" d="M18.898 33.03c.002.217-.052.43-.156.619-.103.19-.254.349-.436.464-.206.138-.448.21-.696.206-.186-.001-.37-.04-.541-.116l-6.441-2.963c-.224-.103-.413-.269-.545-.476-.133-.208-.203-.45-.202-.696V19.842L0 15.292v30.969l28.47 13.114V28.406L18.898 24v9.03zm7.137 21.295c-.102.225-.268.414-.476.547-.208.133-.45.202-.696.2-.187 0-.37-.04-.541-.115l-6.467-2.976c-.31-.145-.55-.406-.669-.727-.118-.32-.105-.675.038-.987.143-.308.401-.547.72-.665.318-.118.67-.106.98.034l6.48 2.976c.31.145.55.406.668.727.119.32.105.675-.037.986zm-.631-6.544c.26.126.471.337.598.598.126.26.161.557.099.84-.063.283-.22.536-.444.72-.224.183-.504.285-.794.29-.187-.002-.37-.041-.541-.116l-6.467-2.976c-.31-.145-.55-.406-.669-.727-.118-.32-.105-.675.038-.986.143-.309.401-.548.72-.666.318-.118.67-.106.98.034l6.48 2.99zM14.229 18.988L41.983 6.044 45.32 7.58 17.566 20.525l-3.337-1.537zm-1.772 2.04l3.865 1.78v8.213l-3.865-1.777v-8.215zm18.59 7.378v30.97l28.47-13.115V15.292l-28.47 13.114zm26.678-15.124L29.758 26.154l-9.146-4.212L48.397 8.989l9.328 4.293zm-46.58 4.303l-9.347-4.303L29.758.405l9.168 4.222-27.782 12.958z"/>
    <path fill="#D39A30" d="M61 51.212v-13.41c0-1.533-1.303-2.775-2.91-2.775H47.424c-1.607 0-2.91 1.242-2.91 2.774v13.41c0 1.533 1.303 2.775 2.91 2.775H58.09c1.606 0 2.909-1.242 2.909-2.774zM47.487 34.203h10.55c.157-.157.28-.35.365-.564.084-.214.127-.446.125-.68v-1.232c.002-.214-.034-.426-.105-.624-.071-.199-.177-.38-.31-.532-.135-.153-.294-.275-.47-.36-.177-.083-.366-.128-.558-.13H48.43c-.191.002-.38.047-.557.13-.176.085-.336.207-.47.36-.133.152-.24.333-.31.532-.072.198-.108.41-.105.624v1.234c0 .235.044.467.13.681.087.214.213.405.37.56z"/>
    <path fill="#fff" stroke="#304248" d="M49.784 43.571v13.41c0 1.235-1.056 2.275-2.41 2.275H36.706c-1.353 0-2.409-1.04-2.409-2.274v-13.41c0-1.235 1.056-2.275 2.41-2.275h10.667c1.353 0 2.41 1.04 2.41 2.274zM37 39.473h0c-.053-.075-.099-.158-.135-.248-.062-.153-.095-.322-.095-.493v0-1.235h0v-.005c-.001-.155.025-.308.076-.45.05-.142.125-.268.216-.372.091-.104.197-.183.309-.237.111-.053.228-.08.345-.082h8.649c.116.002.234.03.345.082.112.054.218.133.309.237.091.104.165.23.216.372.051.142.077.295.076.45h0V38.73h0v.004c.001.171-.03.34-.09.494-.036.089-.08.172-.132.246H37.002h0H37h0H37z"/>
</svg>
