<svg xmlns="http://www.w3.org/2000/svg" width="72" height="59" fill="none" viewBox="0 0 72 59">
    <path fill="#D39A30" fill-rule="evenodd" d="M40.539 19.119l.02.094 1.15 4.901c.378 1.613 1.992 2.614 3.605 2.236l.378-.088c1.613-.379 2.614-1.993 2.236-3.606l-1.15-4.9-.023-.095 6.786-1.59c.3-.071.616-.02.878.143.261.162.448.422.518.722l4.508 19.223c.07.3.018.616-.144.877-.162.262-.422.449-.722.519l-19.223 4.507c-.3.07-.616.019-.877-.143-.262-.163-.449-.422-.52-.722l-4.507-19.223c-.07-.3-.018-.616.144-.878.163-.262.422-.448.722-.518l6.22-1.459z" clip-rule="evenodd"/>
    <path fill="#D39A30" d="M41.668 18.855H45.733V25.824H41.668z" transform="rotate(-13.196 41.668 18.855)"/>
    <path fill="#304248" fill-rule="evenodd" d="M29.996 5.309l6.13-1.438 6.131-1.437c.192-.045.393-.012.56.091.167.104.286.27.33.46l2.876 12.262c.044.191.011.393-.092.56-.104.167-.27.286-.46.33l-12.262 2.875c-.191.045-.392.012-.56-.091-.166-.104-.285-.27-.33-.46L29.444 6.198c-.045-.191-.012-.393.091-.56.104-.166.27-.285.46-.33z" clip-rule="evenodd"/>
    <path fill="#304248" fill-rule="evenodd" d="M71.689 37.634c.131.198.222.42.265.653.054.23.06.47.02.704-.042.234-.13.457-.26.655-.13.199-.298.37-.495.501-.197.132-.419.222-.652.266L42.98 46.29v.273c.002 1.741-.466 3.452-1.356 4.949-.89 1.497-2.167 2.726-3.697 3.557-1.53.83-3.257 1.231-4.996 1.16-1.74-.07-3.428-.61-4.886-1.562-1.458-.951-2.632-2.28-3.397-3.844-.765-1.565-1.094-3.307-.951-5.043.143-1.736.753-3.401 1.764-4.82 1.01-1.417 2.386-2.535 3.98-3.236L21.4 3.514h-3.88c-.466 0-.913-.184-1.242-.514-.33-.33-.515-.776-.515-1.242 0-.466.185-.913.515-1.243.329-.33.776-.514 1.241-.514h5.268c.404-.011.799.117 1.119.364.32.246.545.595.637.989l8.315 35.545h.465c.79.005 1.586.165 2.352.358 1.081.3 3.508 1.195 4.593 2.611.839.862 1.506 1.876 1.967 2.987L69.829 36.9c.231-.054.47-.06.704-.02.234.042.457.13.655.26.199.13.369.298.5.495zM29.908 51.676c1.01.675 2.199 1.036 3.414 1.036 1.63 0 3.194-.648 4.346-1.801 1.153-1.153 1.8-2.718 1.8-4.349 0-1.216-.36-2.405-1.036-3.416-.675-1.011-1.635-1.8-2.758-2.265-1.123-.465-2.358-.587-3.55-.35-1.193.237-2.288.823-3.148 1.683-.86.86-1.444 1.956-1.682 3.149-.237 1.193-.115 2.43.35 3.553.465 1.124 1.253 2.084 2.264 2.76z" clip-rule="evenodd"/>
    <path stroke="#D39A30" stroke-linecap="round" stroke-width="5" d="M2.921 55.378L20.032 51.712M6.435 45.536L17.923 43.07M10.002 35.729L15.848 34.582"/>
</svg>
