<svg xmlns="http://www.w3.org/2000/svg" width="91" height="62" fill="none" viewBox="0 0 91 62">
    <path fill="#304248" stroke="#000" d="M64.29 46.245H14.472c-.64 0-1.16-.52-1.16-1.16V18.014c0-2.474 2.007-4.48 4.481-4.481 0 0 0 0 0 0H60.97c2.476 0 4.482 2.006 4.482 4.481v27.073c0 .64-.52 1.159-1.161 1.159z"/>
    <path fill="#304248" d="M78.747 48.072c-3.668 0-6.641 2.974-6.641 6.642 0 3.669 2.973 6.641 6.641 6.641s6.642-2.972 6.642-6.641c0-3.668-2.974-6.642-6.642-6.642zm0 9.179c-1.4 0-2.537-1.136-2.537-2.537s1.137-2.538 2.537-2.538c1.402 0 2.538 1.137 2.538 2.538 0 1.401-1.135 2.537-2.538 2.537zM26.468 48.072c-3.669 0-6.643 2.974-6.643 6.642 0 3.669 2.974 6.641 6.643 6.641 3.667 0 6.64-2.972 6.64-6.641 0-3.668-2.973-6.642-6.64-6.642zm0 9.179c-1.402 0-2.537-1.136-2.537-2.537s1.136-2.538 2.537-2.538c1.4 0 2.536 1.137 2.536 2.538 0 1.401-1.136 2.537-2.536 2.537z"/>
    <path fill="#D39A30" d="M17.852 54.159c.13-2.032.961-3.872 2.256-5.281.248-.271.17-.473-.198-.473h-5.438c-.916 0-1.66.745-1.66 1.661v2.23c0 1.833 1.486 3.32 3.32 3.32h1.415c.184 0 .317-.149.305-.332l-.001-.042c-.01-.174-.019-.35-.019-.529 0-.166.006-.33.016-.496 0-.019.003-.037.004-.058zM89.885 48.505l-.007-10.822c.002-.917-.44-2.257-.985-2.994l-9.359-12.656c-.547-.737-1.731-1.334-2.648-1.334H70.93c-1.833 0-3.32 1.486-3.32 3.32V47.41c0 .55-.446.995-.996.995h-33.59c-.368 0-.446.202-.197.473 1.293 1.409 2.124 3.248 2.254 5.28.002.02.004.04.004.06.01.164.015.33.015.495 0 .176-.005.35-.017.524v.048c-.012.183.12.332.303.332H69.83c.184 0 .315-.149.305-.332-.013-.189-.018-.38-.018-.571 0-4.769 3.865-8.634 8.633-8.634 4.769 0 8.634 3.865 8.634 8.634 0 .192-.007.382-.019.57-.013.184.121.333.305.333h.01c1.835 0 3.321-1.487 3.321-3.32v-2.232c-.002-.725-.47-1.335-1.115-1.56zM83.04 35.617c0 .55-.447.995-.996.995h-9.059c-.55 0-.996-.446-.996-.995v-9.543c0-.55.446-.996.996-.996h2.34c.55 0 1.26.359 1.588.801l5.533 7.46c.328.444.594 1.133.594 1.54v.738zM13.031.22c7.197 0 13.031 5.834 13.031 13.03 0 7.198-5.834 13.032-13.031 13.032C5.834 26.282 0 20.448 0 13.25 0 6.054 5.834.22 13.031.22zm0 3.257c-.36 0-.652.292-.652.652v8.857L6.578 18.78c-.255.254-.255.672 0 .926.254.255.672.255.926 0l5.986-5.996c.118-.118.194-.278.194-.458V4.129c0-.36-.292-.652-.652-.652z"/>
</svg>
