<svg xmlns="http://www.w3.org/2000/svg" width="19" height="20" fill="none" viewBox="0 0 19 20">
    <path fill="#D39A30" d="M15.354 13.757c1.163-1.822 1.64-4.033 1.338-6.205-.302-2.17-1.361-4.146-2.971-5.54C12.11.618 10.066-.096 7.984.01 5.9.117 3.93 1.035 2.457 2.587.983 4.138.111 6.212.01 8.404c-.101 2.192.577 4.345 1.901 6.04 1.325 1.694 3.201 2.808 5.264 3.126 2.062.318 4.164-.184 5.894-1.407l3.172 3.339c.303.319.714.498 1.143.498.428 0 .84-.18 1.143-.498.303-.32.473-.752.473-1.203 0-.451-.17-.884-.473-1.203l-3.173-3.34zm-6.956 1.865c-1.275 0-2.52-.398-3.58-1.143s-1.886-1.805-2.373-3.044c-.488-1.24-.616-2.603-.367-3.919.249-1.315.862-2.524 1.763-3.472.902-.949 2.05-1.595 3.3-1.857 1.25-.261 2.545-.127 3.722.386 1.178.514 2.184 1.383 2.892 2.498.708 1.116 1.086 2.427 1.086 3.769-.002 1.798-.681 3.522-1.89 4.793-1.207 1.272-2.845 1.987-4.553 1.99z"/>
</svg>
