<svg xmlns="http://www.w3.org/2000/svg" width="23" height="24" fill="none" viewBox="0 0 23 24">
    <path fill="#304248" d="M17.67 6.439C17.67 2.898 14.848 0 11.4 0 7.952 0 5.13 2.898 5.13 6.439s2.822 6.439 6.27 6.439c3.448 0 6.27-2.898 6.27-6.439zM13.88 14.224c-.799.264-1.625.41-2.48.41s-1.681-.146-2.48-.41c-2.508-.848-5.3-.146-6.954 1.932C.741 17.707 0 19.698 0 21.834 0 23.034.94 24 2.109 24h18.582c1.169 0 2.109-.966 2.109-2.166 0-2.136-.741-4.127-1.966-5.678-1.682-2.078-4.447-2.78-6.954-1.932z"/>
</svg>
