<svg xmlns="http://www.w3.org/2000/svg" width="27" height="24" fill="none" viewBox="0 0 27 24">
    <path fill="#304248" d="M10.444 24c1.451 0 2.628-1.177 2.628-2.628 0-1.452-1.177-2.629-2.628-2.629-1.452 0-2.629 1.177-2.629 2.629 0 1.451 1.177 2.628 2.628 2.628zM19.02 24c1.452 0 2.628-1.177 2.628-2.628 0-1.452-1.176-2.629-2.628-2.629-1.451 0-2.628 1.177-2.628 2.629 0 1.451 1.177 2.628 2.628 2.628zM25.453 4.08H6.259L5.5.796C5.444.57 5.316.37 5.134.225 4.953.08 4.728 0 4.496 0H0v2.075h3.666L7.02 16.772c.054.226.183.427.364.571.182.144.407.223.64.225H22.79c.232-.002.457-.08.638-.225.182-.144.31-.345.364-.57l2.629-11.447c.036-.152.038-.31.005-.463-.034-.153-.101-.296-.197-.42-.097-.122-.22-.222-.36-.291-.14-.069-.295-.105-.451-.106l.035.035z"/>
</svg>
